<?xml version="1.0" encoding="UTF-8" standalone="no"?>
<!-- Created with Inkscape (http://www.inkscape.org/) -->

<svg
   xmlns:dc="http://purl.org/dc/elements/1.1/"
   xmlns:cc="http://creativecommons.org/ns#"
   xmlns:rdf="http://www.w3.org/1999/02/22-rdf-syntax-ns#"
   xmlns:svg="http://www.w3.org/2000/svg"
   xmlns="http://www.w3.org/2000/svg"
   xmlns:sodipodi="http://sodipodi.sourceforge.net/DTD/sodipodi-0.dtd"
   xmlns:inkscape="http://www.inkscape.org/namespaces/inkscape"
   width="159.05273mm"
   height="171.07501mm"
   viewBox="0 0 563.57268 606.1713"
   id="svg2"
   version="1.1"
   inkscape:version="0.91 r13725"
   sodipodi:docname="logo_black.svg">
  <defs
     id="defs4">
    <inkscape:perspective
       id="perspective3417"
       inkscape:persp3d-origin="372.04723 : 350.78738 : 1"
       inkscape:vp_z="744.09447 : 526.18107 : 1"
       inkscape:vp_y="0 : 999.99993 : 0"
       inkscape:vp_x="0 : 526.18107 : 1"
       sodipodi:type="inkscape:persp3d" />
  </defs>
  <sodipodi:namedview
     id="base"
     pagecolor="#ffffff"
     bordercolor="#666666"
     borderopacity="0"
     inkscape:pageopacity="0.0"
     inkscape:pageshadow="2"
     inkscape:zoom="1"
     inkscape:cx="169.29887"
     inkscape:cy="228.88387"
     inkscape:document-units="px"
     inkscape:current-layer="g3354"
     showgrid="false"
     inkscape:window-width="1280"
     inkscape:window-height="949"
     inkscape:window-x="0"
     inkscape:window-y="29"
     inkscape:window-maximized="1"
     fit-margin-top="1"
     fit-margin-left="1"
     fit-margin-right="1"
     fit-margin-bottom="1"
     borderlayer="false"
     inkscape:showpageshadow="false"
     showborder="false" />
  <metadata
     id="metadata7">
    <rdf:RDF>
      <cc:Work
         rdf:about="">
        <dc:format>image/svg+xml</dc:format>
        <dc:type
           rdf:resource="http://purl.org/dc/dcmitype/StillImage" />
        <dc:title></dc:title>
      </cc:Work>
    </rdf:RDF>
  </metadata>
  <g
     inkscape:label="Capa 1"
     inkscape:groupmode="layer"
     id="layer1"
     transform="translate(-114.46151,-54.330996)">
    <g
       id="g3354"
       transform="translate(-29.850747,-135.26395)">
      <g
         inkscape:label="Capa 4"
         id="layer4" />
      <g
         inkscape:label="Capa 3"
         id="layer3" />
      <g
         id="g4165"
         style="fill:#000000;fill-opacity:1">
        <g
           transform="matrix(0.98932504,0,0,1.0001142,1.7330227,-0.05649118)"
           id="layer2"
           inkscape:label="Capa 2"
           style="display:inline;fill:#000000;fill-opacity:1">
          <path
             style="color:#000000;font-style:normal;font-variant:normal;font-weight:normal;font-stretch:normal;font-size:medium;line-height:normal;font-family:sans-serif;text-indent:0;text-align:start;text-decoration:none;text-decoration-line:none;text-decoration-style:solid;text-decoration-color:#000000;letter-spacing:normal;word-spacing:normal;text-transform:none;direction:ltr;block-progression:tb;writing-mode:lr-tb;baseline-shift:baseline;text-anchor:start;white-space:normal;clip-rule:nonzero;display:inline;overflow:visible;visibility:visible;opacity:1;isolation:auto;mix-blend-mode:normal;color-interpolation:sRGB;color-interpolation-filters:linearRGB;solid-color:#000000;solid-opacity:1;fill:#000000;fill-opacity:1;fill-rule:evenodd;stroke:none;stroke-width:36.19163513;stroke-linecap:butt;stroke-linejoin:miter;stroke-miterlimit:4;stroke-dasharray:none;stroke-dashoffset:0;stroke-opacity:1;color-rendering:auto;image-rendering:auto;shape-rendering:auto;text-rendering:auto;enable-background:accumulate"
             d="M 257.95508,4.3320312 4.3222656,153.12695 3.5429688,448.1582 C 87.957275,498.81527 171.34149,552.47884 255.71098,602.49023 l 4.41406,-0.008 0.24023,0 0.24219,-0.004 4.62305,-0.0859 0.24023,-0.004 0.24024,-0.01 4.60937,-0.16016 0.24219,-0.008 0.23828,-0.0117 4.59766,-0.23828 0.23828,-0.0117 0.24023,-0.0156 4.58203,-0.3125 0.24024,-0.0176 0.23828,-0.0195 4.56836,-0.38671 0.23633,-0.0215 0.23828,-0.0254 4.55273,-0.46094 0.23828,-0.0254 0.23633,-0.0254 4.53907,-0.53906 0.23632,-0.0273 0.23438,-0.0312 4.52148,-0.61133 0.23438,-0.0293 0.23437,-0.0371 4.50196,-0.68359 0.23437,-0.0352 0.23438,-0.041 4.48437,-0.75586 0.23242,-0.0391 0.23242,-0.043 1.67969,-0.3125 -10.55859,-48.12695 -1.47461,0.27344 -4.02539,0.67773 -4.03906,0.61328 -3.93946,0.53321 -4.0664,0.48047 -4.05274,0.41406 -4.19531,0.35352 -4.0918,0.28124 -4.09765,0.20899 -4.11719,0.14648 -4.11328,0.0762 -4.04883,0.008 L 39.402344,427.69336 40.070312,174.03711 255.54688,49.019531 c 24.11293,3.862211 33.04505,5.305372 48.47851,8.042969 l 10.75,-48.09375 -2.81641,-0.5332031 -0.23046,-0.042969 -0.23438,-0.041016 -4.47852,-0.7695313 -0.23437,-0.041016 -0.23437,-0.035156 -4.49805,-0.7011719 -0.23438,-0.037109 -0.23633,-0.03125 -4.51757,-0.6269531 -0.23633,-0.03125 -0.23633,-0.029297 -4.5332,-0.5507812 -0.23633,-0.03125 -0.24024,-0.023437 -4.54882,-0.4785156 -0.23828,-0.023438 -0.23829,-0.021484 -4.56835,-0.4042969 -0.23829,-0.021484 -0.23828,-0.017578 -4.58203,-0.328125 -0.24023,-0.017578 -0.23828,-0.011719 -4.59571,-0.2519531 -0.24023,-0.013672 -0.24024,-0.00977 -4.60937,-0.1777344 -0.24024,-0.00977 -0.24023,-0.00391 c -5.77339,-0.00577 -5.75142,-0.00371 -8.32617,0.6796998 z M 370.86328,25.390625 349.4707,70.375 l 2.4375,0.980469 3.69532,1.558593 3.71875,1.638672 3.55078,1.634766 3.7207,1.785156 3.59375,1.796875 3.56641,1.855469 3.50781,1.898438 3.60547,2.027343 3.39648,1.982422 3.50781,2.123047 3.4668,2.177734 0.0254,0.01563 0.11524,0.07227 4.72656,-6.367187 25.98242,-33.78711 -0.25,-0.162109 -0.18359,-0.119141 -0.18164,-0.115234 -3.79297,-2.38086 -0.18555,-0.117187 -0.18555,-0.113281 -3.83203,-2.31836 -0.18554,-0.113281 -0.18946,-0.111328 -3.86718,-2.255859 -0.18946,-0.111329 -0.1914,-0.109375 -3.90235,-2.193359 -0.19336,-0.109375 -0.19531,-0.103516 -3.9375,-2.130859 -0.19336,-0.105469 -0.19726,-0.103515 -3.97266,-2.066407 -0.19727,-0.103515 -0.19922,-0.09766 -4.00781,-2.003906 -0.19726,-0.09961 -0.20118,-0.09766 -4.04101,-1.9375 -0.20117,-0.09766 -0.20313,-0.09375 -4.07422,-1.873046 -0.20312,-0.09375 -0.20508,-0.0918 -4.10352,-1.808594 -0.20507,-0.08984 -0.20704,-0.08789 -4.13671,-1.742187 -0.20703,-0.08789 -0.21094,-0.08398 z m 95.51758,61.017578 -38.19531,34.294917 1.30859,1.23438 2.87695,2.80273 2.89063,2.90821 2.85937,2.97461 2.74805,2.95312 2.76758,3.07422 2.71875,3.12109 2.67383,3.17774 2.56445,3.14648 2.59766,3.30078 2.46875,3.24414 2.04101,2.7793 44.21875,-27.49804 -2.14062,-2.91407 -0.1211,-0.16406 -0.12304,-0.16211 -2.75977,-3.62695 -0.12305,-0.16211 -0.12695,-0.16016 -2.81445,-3.57422 -0.12696,-0.16015 -0.1289,-0.16016 -2.86914,-3.52344 -0.12891,-0.16015 -0.13281,-0.15625 -2.92188,-3.47071 -0.13281,-0.15625 -0.13672,-0.15625 -2.97461,-3.41601 -0.13672,-0.1543 -0.13671,-0.15625 -3.02735,-3.36133 -0.13867,-0.15429 -0.14258,-0.15235 -3.07617,-3.308591 -0.14453,-0.150391 -0.14258,-0.15039 -3.12891,-3.25586 -0.14257,-0.148437 -0.14844,-0.148438 -3.17969,-3.199219 -0.14648,-0.146484 -0.15039,-0.148438 -3.22852,-3.140624 -0.14844,-0.148438 -0.15234,-0.142578 z m 64.45703,88.283207 -48.77344,19.9414 0.51367,1.0625 1.75,3.7793 1.71485,3.875 1.57812,3.73242 1.58399,3.92774 1.49414,3.88281 1.41211,3.86523 1.35937,3.92188 1.28516,3.90625 1.25,4.04101 1.15234,3.94922 0.68555,2.49024 51.74805,-12.01953 -0.74805,-2.73047 -0.0508,-0.18164 -0.0527,-0.1836 -1.26562,-4.32422 -0.0527,-0.18359 -0.0547,-0.18164 -1.33789,-4.31055 -0.0566,-0.17969 -0.0606,-0.18164 -1.41016,-4.29296 -0.0586,-0.18165 -0.0625,-0.18164 -1.48242,-4.27343 -0.0625,-0.18164 -0.0664,-0.17774 -1.55469,-4.25781 -0.0664,-0.18164 -0.0703,-0.17774 -1.62695,-4.23632 -0.0684,-0.18165 -0.0742,-0.17773 -1.69921,-4.21484 -0.0723,-0.17969 -0.0762,-0.17969 -1.77344,-4.1914 -0.0762,-0.17969 -0.0781,-0.17969 -1.8457,-4.16992 -0.0801,-0.17774 -0.082,-0.17773 -1.91797,-4.14648 -0.084,-0.17774 -0.084,-0.17773 z m 28.08008,102.7832 -53.19727,3.9668 0.13672,1.55078 0.2832,3.98242 0.23438,4.23242 0.15625,3.98047 0.0977,4.23633 0.0234,3.98242 -0.0391,4.10547 -0.11133,4.23437 -0.16992,3.98047 -0.24023,4.10352 -0.3125,4.10547 -0.22657,2.5039 53.1836,4.1211 0.24805,-2.71875 0.0176,-0.1836 0.0137,-0.18359 0.33594,-4.45313 0.0137,-0.18359 0.01,-0.18555 0.26367,-4.45703 0.01,-0.18359 0.01,-0.1836 0.1875,-4.46093 0.01,-0.1836 0.004,-0.18359 0.11523,-4.46484 0.008,-0.18164 0.002,-0.1836 0.043,-4.46484 0.002,-0.1836 -0.002,-0.18359 -0.0293,-4.46289 0,-0.18555 -0.004,-0.18359 -0.10156,-4.46289 -0.004,-0.18359 -0.008,-0.1836 -0.17383,-4.46094 -0.008,-0.18554 -0.0117,-0.18164 -0.24609,-4.45899 -0.01,-0.18359 -0.0137,-0.18555 -0.31836,-4.45508 -0.0137,-0.18164 -0.0156,-0.18359 z m -61.57422,93.28516 -0.45703,1.63671 -1.13281,3.82813 -1.2793,4.07031 -1.25781,3.79102 -1.41211,4.02929 -1.42578,3.85938 -1.50586,3.875 -1.55469,3.81445 -1.63477,3.83008 -1.70117,3.80664 -1.78906,3.83203 -0.95508,1.95703 48.70313,20.08789 1.05273,-2.16601 0.0879,-0.17578 0.084,-0.17774 1.93164,-4.14062 0.084,-0.17774 0.0801,-0.17773 1.86133,-4.16602 0.0781,-0.17578 0.0762,-0.17969 1.78907,-4.18554 0.0762,-0.17969 0.0723,-0.17969 1.71485,-4.20898 0.0723,-0.17969 0.0703,-0.18164 1.64257,-4.22851 0.0723,-0.17969 0.0664,-0.18164 1.56836,-4.24805 0.0664,-0.18164 0.0644,-0.17969 1.49805,-4.26953 0.0625,-0.18164 0.0605,-0.18164 1.42383,-4.28516 0.0605,-0.18164 0.0547,-0.18164 1.35352,-4.30664 0.0586,-0.18164 0.0527,-0.17969 1.2793,-4.32422 0.0547,-0.18164 0.0488,-0.17968 0.49023,-1.75977 z m -39.77734,81.38085 -1.4336,1.93946 -2.43945,3.18164 -2.63281,3.32226 -2.58985,3.15625 -2.73242,3.22071 -2.67773,3.05468 -2.82813,3.11719 -2.76172,2.94727 -2.80859,2.89844 -2.8418,2.84375 -3.00586,2.9082 -2.04492,1.91211 38.06641,34.41601 2.19922,-2.05664 0.15234,-0.14453 0.15234,-0.14453 3.23633,-3.13281 0.15235,-0.14453 0.14648,-0.14844 3.18945,-3.18945 0.14844,-0.14649 0.14453,-0.14844 3.14063,-3.24414 0.14453,-0.15039 0.14258,-0.15039 3.09179,-3.29883 0.14063,-0.15039 0.13867,-0.15429 3.03906,-3.35352 0.13867,-0.15234 0.13672,-0.15625 2.98633,-3.40625 0.13672,-0.1543 0.13281,-0.1582 2.9336,-3.45899 0.13281,-0.15625 0.13086,-0.16015 2.88086,-3.51172 0.13086,-0.15821 0.12695,-0.16015 2.82617,-3.56641 0.12891,-0.16015 0.125,-0.16211 2.76953,-3.61719 0.125,-0.16211 0.12109,-0.16406 1.52539,-2.06055 z m -67.60157,62.84571 -2.93164,1.82812 -3.51562,2.11133 -3.40625,1.97266 -3.52149,1.96484 -3.59765,1.93164 -3.57422,1.84375 -3.6582,1.8125 -3.58008,1.70313 -3.69531,1.68554 -3.67383,1.60352 -3.70313,1.54492 -3.48828,1.39063 21.21484,45.05468 3.65821,-1.45703 0.20898,-0.084 0.20899,-0.0859 4.14062,-1.72852 0.20899,-0.0879 0.20507,-0.0898 4.11133,-1.79492 0.20508,-0.0898 0.20508,-0.0937 4.08008,-1.85743 0.20312,-0.0937 0.20117,-0.0957 4.04883,-1.92578 0.20117,-0.0977 0.19727,-0.0976 4.01367,-1.98829 0.20117,-0.0996 0.19727,-0.10352 3.98047,-2.05273 0.19726,-0.10157 0.19336,-0.10351 3.94727,-2.11914 0.19336,-0.10352 0.19336,-0.10742 3.91015,-2.18164 0.19336,-0.10742 0.18945,-0.10938 3.87305,-2.24414 0.19141,-0.10937 0.1875,-0.11328 3.83789,-2.30665 0.1875,-0.11328 0.18555,-0.11523 3.10937,-1.9375 z"
             transform="matrix(1.0107901,0,0,0.99988581,144.11768,189.62978)"
             id="path3357"
             inkscape:connector-curvature="0"
             sodipodi:nodetypes="cccccccccccccccccccccccccccccccccccccccccccccccccccccccccccccccccccccccccccccccccccccccccccccccccccccccccccccccccccccccccccccccccccccccccccccccccccccccccccccccccccccccccccccccccccccccccccccccccccccccccccccccccccccccccccccccccccccccccccccccccccccccccccccccccccccccccccccccccccccccccccccccccccccccccccccccccccccccccccccccccccccccccccccccccccccccccccccccccccccccccccccccccccccccccccccccccccccccccccccccccccccccccccccccccccccccccccccccccccc" />
        </g>
        <g
           transform="matrix(1.0618591,0,0,0.97682886,-99.45578,42.356376)"
           id="layer5"
           inkscape:label="Capa 5"
           style="fill:#000000;fill-opacity:1" />
        <g
           transform="translate(2,-4)"
           id="text4168"
           style="font-style:normal;font-variant:normal;font-weight:normal;font-stretch:normal;font-size:122.26669312px;line-height:125%;font-family:carme;-inkscape-font-specification:carme;letter-spacing:0px;word-spacing:0px;fill:#000000;fill-opacity:1;stroke:none;stroke-width:1px;stroke-linecap:butt;stroke-linejoin:miter;stroke-opacity:1">
          <path
             inkscape:connector-curvature="0"
             id="path4192"
             transform="translate(29.850747,135.26395)"
             d="m 371.75977,157.24219 c -31.88009,0 -59.99961,8.95507 -84.35743,26.86523 -24.35782,17.91016 -36.53711,41.01445 -36.53711,69.3125 0,18.98477 6.35801,35.90996 19.07422,50.77539 12.89532,14.68634 28.47774,26.9541 46.7461,36.80469 l 19.02929,9.93164 0,-48.49609 c -0.46549,-0.32162 -0.9095,-0.63574 -1.29882,-0.92774 l -15.58204,-12.08984 c -6.80586,-5.19395 -11.64023,-10.7459 -14.50586,-16.65625 -2.68652,-5.91035 -4.03124,-12.35684 -4.03124,-19.3418 0,-17.19375 7.25448,-30.53691 21.76171,-40.0293 14.50724,-9.67148 31.07461,-14.50781 49.70118,-14.50781 17.19375,0.1791 36.08886,5.73105 56.68554,16.65625 8.77598,4.65664 17.19238,10.12012 25.25196,16.38867 l 18.80664,-40.5664 c -10.2088,-7.88048 -19.34277,-13.61329 -27.40235,-17.19531 -24.35781,-11.28341 -48.80487,-16.92383 -73.34179,-16.92383 z m 33.95507,183.62109 0,51.11524 c 4.54421,3.84106 8.8069,7.8917 12.78907,12.15429 12.89532,13.61172 19.34375,29.01523 19.34375,46.20899 0,19.52208 -7.52188,35.55078 -22.56641,48.08789 -15.04454,12.35801 -33.22402,18.53711 -54.53711,18.53711 -16.83555,0 -36.98495,-7.70078 -60.44726,-23.10352 -10.02969,-6.26855 -20.14863,-13.96933 -30.35743,-23.10351 l -19.07422,41.37109 c 8.77598,9.13418 18.80645,17.01582 30.08985,23.64258 25.61153,15.40274 52.20741,23.10351 79.78906,23.10351 33.13379,0 62.50761,-10.38827 88.11914,-31.16406 25.61153,-20.77579 38.41602,-46.56561 38.41602,-77.37109 0,-10.20879 -0.89454,-19.52168 -2.68555,-27.93946 -1.79102,-8.41777 -5.10567,-16.20898 -9.94141,-23.37304 -4.65664,-7.16406 -8.86582,-13.16426 -12.62695,-18 -3.76114,-5.01485 -10.20762,-10.5668 -19.3418,-16.65625 l -20.14843,-13.4336 c -3.37069,-2.29206 -8.98373,-5.65265 -16.82032,-10.07617 z"
             style="font-style:normal;font-variant:normal;font-weight:normal;font-stretch:normal;font-size:550.20013428px;font-family:carme;-inkscape-font-specification:carme;fill:#000000;fill-opacity:1" />
        </g>
        <text
           sodipodi:linespacing="125%"
           id="text4184"
           y="580.76904"
           x="515.85077"
           style="font-style:normal;font-weight:normal;font-size:40px;line-height:125%;font-family:sans-serif;letter-spacing:0px;word-spacing:0px;fill:#000000;fill-opacity:1;stroke:none;stroke-width:1px;stroke-linecap:butt;stroke-linejoin:miter;stroke-opacity:1"
           xml:space="preserve"><tspan
             style="font-style:normal;font-variant:normal;font-weight:normal;font-stretch:normal;font-size:375px;font-family:carme;-inkscape-font-specification:carme;fill:#000000;fill-opacity:1"
             y="580.76904"
             x="515.85077"
             id="tspan4186"
             sodipodi:role="line">;</tspan></text>
        <rect
           y="379.34045"
           x="384.70789"
           height="224.28572"
           width="36"
           id="rect4219"
           style="stroke:none;stroke-width:16.89822388;stroke-linecap:butt;stroke-linejoin:miter;stroke-miterlimit:4;stroke-dasharray:16.89822388, 16.89822387999999975;stroke-dashoffset:11.82875633;stroke-opacity:1;fill:#000000;fill-opacity:1" />
      </g>
    </g>
  </g>
</svg>
