<?xml version="1.0" encoding="UTF-8" standalone="no"?>
<!-- Generator: Assembly 1.0 - http://assemblyapp.co -->

<svg
   xmlns:dc="http://purl.org/dc/elements/1.1/"
   xmlns:cc="http://creativecommons.org/ns#"
   xmlns:rdf="http://www.w3.org/1999/02/22-rdf-syntax-ns#"
   xmlns:svg="http://www.w3.org/2000/svg"
   xmlns="http://www.w3.org/2000/svg"
   xmlns:sodipodi="http://sodipodi.sourceforge.net/DTD/sodipodi-0.dtd"
   xmlns:inkscape="http://www.inkscape.org/namespaces/inkscape"
   version="1.1"
   width="300"
   height="300"
   viewBox="0 0 300 300"
   id="svg2"
   inkscape:version="0.91 r13725"
   sodipodi:docname="assembly.svg"
   inkscape:export-filename="/home/jrodriguez/dwn/assembly.svg.png"
   inkscape:export-xdpi="345.79001"
   inkscape:export-ydpi="345.79001">
  <metadata
     id="metadata15">
    <rdf:RDF>
      <cc:Work
         rdf:about="">
        <dc:format>image/svg+xml</dc:format>
        <dc:type
           rdf:resource="http://purl.org/dc/dcmitype/StillImage" />
      </cc:Work>
    </rdf:RDF>
  </metadata>
  <defs
     id="defs13" />
  <sodipodi:namedview
     pagecolor="#ffffff"
     bordercolor="#666666"
     borderopacity="1"
     objecttolerance="10"
     gridtolerance="10"
     guidetolerance="10"
     inkscape:pageopacity="0"
     inkscape:pageshadow="2"
     inkscape:window-width="1280"
     inkscape:window-height="943"
     id="namedview11"
     showgrid="false"
     inkscape:zoom="2.2250293"
     inkscape:cx="92.411408"
     inkscape:cy="190.61591"
     inkscape:window-x="0"
     inkscape:window-y="29"
     inkscape:window-maximized="1"
     inkscape:current-layer="svg2" />
  <g
     id="widget"
     transform="matrix(1,0,0,1,150,150)">
    <path
       d="m -0.0414863,40.822 0,-1.1305 c 4.7730963,0 9.4204663,-0.7536 13.6910863,-2.3865 5.0243,-1.8841 9.5461,-4.6474 13.5656,-8.29 5.2754,-4.8987 9.0435,-11.0534 11.1789,-17.9617 l 1.1305,0.3768 C 37.3894,18.464 33.4955,24.8699 28.0945,29.8942 24.0751,33.6624 19.3021,36.5514 14.1522,38.4355 9.63013,40.0684 4.85719,40.822 -0.0414863,40.822 Z M 42.9158,-0.251153 l -4.6474,0 c 0,-7.159487 -1.8841,-14.067847 -5.6523,-20.096947 l 3.8938,-2.3866 c 4.1451,6.657 6.4059,14.44472 6.4059,22.483547 z m -70.7162,-23.111547 -7.0339,-5.9035 c 4.0193,-4.8986 8.918,-8.6668 14.5702,-11.5557 3.7682,-1.8841 7.7876,-3.1401 11.80706,-4.0193 2.76327,-0.5025 5.65228,-0.7536 8.4155537,-0.7536 6.0291563,0 11.9325863,1.1305 17.3336863,3.517 l -3.6426,8.4156 c -4.3962,-1.8841 -9.04356,-2.7633 -13.816662,-2.7633 -2.260968,0 -4.521788,0.2512 -6.657188,0.628 -3.26575,0.6281 -6.40585,1.633 -9.42045,3.1402 -4.3962,2.3862 -8.29,5.5264 -11.5557,9.2946 z m 69.9626,61.4214 -3.3913,-3.1401 c 6.1547,-6.7828 10.4253,-15.0728 12.435,-23.9908 l 4.5218,1.0049 c -2.1354,9.6715 -6.7828,18.7152 -13.5655,26.126 z M 14.1521,-52.3777 c -4.52182,-1.2561 -9.29491,-1.8841 -14.0678574,-1.8841 -4.7730926,0 -9.5460426,0.628 -14.0678426,1.8841 l -0.2511,-1.1305 c 4.64733,-1.2561 9.546,-1.8841 14.444671,-1.8841 4.898669,0 9.671619,0.628 14.444729,1.8841 z M -3.6841,55.3923 C -17.7519,54.5131 -30.9406,48.2328 -40.6124,37.933 -50.4097,27.5076 -55.6851,13.9423 -55.6851,-0.251306 c 0,-1.884094 0.1256,-4.019334 0.2512,-5.903434 0.8791,-8.54126 3.6426,-16.57996 8.2899,-23.73956 l 1.8841,1.256 c -4.3962,6.9084 -7.0339,14.5703 -7.9132,22.73472 -0.2512,1.88409 -0.2512,3.76818 -0.2512,5.652274 0,13.691106 5.1498,26.628406 14.5703,36.676906 9.2949,9.923 21.8555,15.8264 35.4209,16.7057 z"
       id="path5"
       style="fill:#377158;fill-opacity:1"
       inkscape:connector-curvature="0"
       sodipodi:nodetypes="ccccccccccccccccccsccscccccccccsccsccccsccccsccc" />
    <path
       d="M-32.2695,-56.676 L-41.2983,-72.2256 C-53.3366,-65.2033 -63.5359,-55.3385 -70.7254,-43.6346 L-55.0086,-34.6058 C-49.4909,-43.8015 -41.6327,-51.3255 -32.2695,-56.676 Z M-56.0117,-33.2681 L-71.5614,-42.2969 C-78.4165,-30.5929 -82.5965,-17.0499 -82.931,-2.50339 L-64.8734,-2.50339 C-64.706,-13.7057 -61.362,-24.2393 -56.0117,-33.2681 Z M-0.334314,-65.5374 L-0.334314,-83.595 C-14.7134,-83.4279 -28.0893,-79.7494 -39.7933,-73.2288 L-30.7645,-57.6791 C-21.7359,-62.528 -11.3696,-65.3703 -0.334314,-65.5374 Z M31.7679,-57.512 L40.7967,-73.0616 C29.0927,-79.5824 15.5496,-83.2607 1.33768,-83.4279 L1.33768,-65.3703 C12.3728,-65.3703 22.7391,-62.528 31.7679,-57.512 Z M56.0118,-34.7729 L71.7285,-43.8017 C64.3717,-55.6728 54.3398,-65.5376 42.3015,-72.3928 L33.2727,-56.8432 C42.4687,-51.3255 50.3269,-43.8015 56.0118,-34.7729 Z M-65.0406,0.00459528 C-65.0406,-0.329722 -65.0406,-0.497084 -65.0406,-0.831401 L-83.0982,-0.831401 C-83.0982,-0.497084 -83.0982,-0.329722 -83.0982,0.00459528 C-83.0982,14.3837 -79.4198,27.9268 -73.0662,39.7981 L-57.3494,30.7693 C-62.3654,21.5733 -65.0406,11.2069 -65.0406,0.00459528 Z M34.6102,55.8492 L43.639,71.566 C55.8446,64.2092 66.0437,53.6757 73.066,41.3029 L57.5164,32.2741 C51.9989,41.9716 44.1406,50.1644 34.6102,55.8492 Z M-56.6806,32.2741 L-72.2302,41.3029 C-65.2079,53.6757 -55.0086,64.2092 -42.8032,71.566 L-33.7744,55.8492 C-43.3046,50.1644 -51.1629,41.9716 -56.6806,32.2741 Z M1.33768,65.5466 L1.33768,83.6042 C16.2185,83.4371 30.2632,79.4242 42.3015,72.402 L33.2727,56.8523 C23.7422,62.2026 12.8743,65.3795 1.33768,65.5466 Z M-32.2695,56.6852 L-41.2983,72.2348 C-29.2601,79.2571 -15.2153,83.2699 -0.334519,83.4371 L-0.334519,65.3795 C-12.0383,65.3795 -22.9062,62.2026 -32.2695,56.6852 Z"
       fill="#367159"
       fill-opacity="1"
       id="path7" />
    <path
       style="fill:none;fill-rule:evenodd;stroke:#367259;stroke-width:1.06718731px;stroke-linecap:butt;stroke-linejoin:miter;stroke-opacity:1"
       d="m -5.40254,-10.805083 0,13.029663"
       id="path4151"
       inkscape:connector-curvature="0" />
    <path
       style="fill:none;fill-rule:evenodd;stroke:#367259;stroke-width:1.15776742px;stroke-linecap:butt;stroke-linejoin:miter;stroke-opacity:1"
       d="m 7.30932,-17.16102 0,18.5911014"
       id="path4153"
       inkscape:connector-curvature="0"
       sodipodi:nodetypes="cc" />
    <path
       style="fill:none;fill-rule:evenodd;stroke:#367259;stroke-width:1.14979732px;stroke-linecap:butt;stroke-linejoin:miter;stroke-opacity:1"
       d="m -17.47881,8.5805039 0,24.7881351"
       id="path4155"
       inkscape:connector-curvature="0" />
    <path
       style="fill:none;fill-rule:evenodd;stroke:#367259;stroke-width:1px;stroke-linecap:butt;stroke-linejoin:miter;stroke-opacity:1"
       d="m -5.4025437,10.80508 0,15.88984"
       id="path4157"
       inkscape:connector-curvature="0" />
  </g>
  <path
     style="fill:none;fill-rule:evenodd;stroke:#367259;stroke-width:2.5;stroke-linecap:butt;stroke-linejoin:round;stroke-miterlimit:4;stroke-dasharray:none;stroke-opacity:1"
     d="m 173.83474,123.62288 c -22.39596,3.69179 -55.21258,24.2535 -44.55303,30.08412 10.65954,5.83062 36.61259,-2.38597 40.42167,4.76696 3.80908,7.15293 -20.32445,23.3611 -44.14377,31.98372"
     id="path4149"
     inkscape:connector-curvature="0"
     sodipodi:nodetypes="czzc" />
</svg>
